<?xml version="1.0" encoding="utf-8"?>
<!-- Generator: Adobe Illustrator 17.0.0, SVG Export Plug-In . SVG Version: 6.00 Build 0)  -->
<!DOCTYPE svg PUBLIC "-//W3C//DTD SVG 1.1//EN" "http://www.w3.org/Graphics/SVG/1.1/DTD/svg11.dtd">
<svg version="1.1" id="Calque_1" xmlns="http://www.w3.org/2000/svg" xmlns:xlink="http://www.w3.org/1999/xlink" x="0px" y="0px"
	 width="72.333px" height="72.333px" viewBox="0 0 72.333 72.333" enable-background="new 0 0 72.333 72.333" xml:space="preserve">
<path fill="#FFFFFF" d="M36.167,0C16.192,0,0,16.192,0,36.167s16.192,36.167,36.167,36.167c19.974,0,36.167-16.192,36.167-36.167
	S56.141,0,36.167,0z M61.697,46.234C54.234,55.71,38.611,61.375,27.82,61.375c-7.759,0-15.613-4.434-15.613-12.908
	c0-1.543,0.704-3.205,2.25-3.205c1.772,0,1.772,2.023,1.772,2.887c0,6.414,6.181,9.284,12.307,9.284
	c8.778,0,22.548-4.919,29.057-12.241c0.837-0.931,1.226-1.734,1.226-2.531c0-3.46-5.761-4.576-7.527-4.835
	c-3.614-0.55-7.411-0.766-11.082-0.975c-7.524-0.428-15.303-0.871-22.308-4.158c-1.923-0.868-6.413-3.292-6.413-6.975
	c0-9.661,23.86-11.636,30.25-11.636c2.54,0,11.206,0.223,16.083,3.092c1.455,0.9,4.144,2.563,4.144,5.204
	c0,2.05-2.384,4.477-4.397,4.477c-1.028,0-2.091-0.723-2.091-1.932c0-1.047,0.74-1.828,1.229-2.345
	c0.107-0.113,0.245-0.258,0.321-0.356c-0.075-0.109-0.233-0.307-0.526-0.601c-2.938-3.162-11.668-3.993-15.876-3.993
	c-6.927,0-16.497,1.48-22.263,4.786c-1.181,0.665-2.532,1.594-2.532,2.908c0,1.52,1.926,2.802,3.541,3.609
	c7.637,3.852,16.457,4.223,24.987,4.583c1.565,0.066,3.118,0.132,4.647,0.218c4.327,0.24,14.392,1.498,14.392,7.976
	C63.398,43.255,62.794,44.864,61.697,46.234z"/>
</svg>
